# xmcd
#
# Track frame offsets:
#	150
#	26484
#	50870
#	76221
#	103376
#	130923
#	161749
#	188013
#	210454
#
# Disc length: 3377 seconds
#
# Revision: 0
# Processed by: cddbd v1.5.2PL0 Copyright (c) Steve Scherf et al.
# Submitted via: EasyCDDAExtractor 16.0.9.1
#
DISCID=790d2f09
DTITLE=Various Artist - NRG Makeovers 4
DYEAR=2003
DGENRE=Euro-House
TTITLE0=Wildside  - I Know There's Something Going On (Factory Eurotrance Mix)
TTITLE1=Lawrence - Some People (Factory Eurotrance Mix)
TTITLE2=Beat Box - What A Wonderful World (Factory Team Version)
TTITLE3=Bakerstreet - Let's Make Love (Factory Team Mix)
TTITLE4=Leit-Motiv  - To Deserve You (Eurotrance Mix)
TTITLE5=Axel Force - Always (Eurotrance Mix)
TTITLE6=Blue Dream - Searchin' For A Golden Eye 
TTITLE7=Voyage 2000 - Born To Be Alive
TTITLE8=Pink Panther - Sorrow Town (Eurotrance Mix)
EXTD=
EXTT0=
EXTT1=
EXTT2=
EXTT3=
EXTT4=
EXTT5=
EXTT6=
EXTT7=
EXTT8=
PLAYORDER=
